<svg xmlns="http://www.w3.org/2000/svg" viewBox="0 0 32 32">
  <!-- Beard -->
  <path d="M4 14 Q3 22 7 26 Q11 30 16 30 Q21 30 25 26 Q29 22 28 14 Q23 18 16 18 Q9 18 4 14Z" fill="#3b1f0e"/>

  <!-- Mustache -->
  <path d="M6 21 Q12 11 16 15 Q20 11 26 21 Q20 17 16 17 Q12 17 6 21Z" fill="#3b1f0e"/>

  <!-- Left glasses frame -->
  <rect x="2" y="4" width="12" height="9" rx="3" ry="3" fill="rgba(200,230,255,0.4)" stroke="#222" stroke-width="1.8"/>

  <!-- Right glasses frame -->
  <rect x="18" y="4" width="12" height="9" rx="3" ry="3" fill="rgba(200,230,255,0.4)" stroke="#222" stroke-width="1.8"/>

  <!-- Bridge -->
  <line x1="14" y1="8.5" x2="18" y2="8.5" stroke="#222" stroke-width="1.8" stroke-linecap="round"/>

  <!-- Left temple -->
  <line x1="2" y1="8" x2="0" y2="7" stroke="#222" stroke-width="1.8" stroke-linecap="round"/>

  <!-- Right temple -->
  <line x1="30" y1="8" x2="32" y2="7" stroke="#222" stroke-width="1.8" stroke-linecap="round"/>
</svg>